<?xml version="1.0" encoding="UTF-8"?>
<svg width="82.586mm" height="82.586mm" version="1.1" viewBox="0 0 82.586 82.586" xmlns="http://www.w3.org/2000/svg">
 <g transform="translate(-63.707 -102.63)">
  <path d="m146.29 143.92a41.293 41.293 0 0 1-41.293 41.293 41.293 41.293 0 0 1-41.293-41.293 41.293 41.293 0 0 1 41.293-41.293 41.293 41.293 0 0 1 41.293 41.293z" fill="#2d3439" stroke-linecap="round" stroke-linejoin="bevel" stroke-width=".265"/>
  <path d="m135.82 158.38c0 3.402-0.7745 6.4239-2.3235 9.0659-1.5071 2.6058-3.6841 4.8134-6.531 6.623-2.805 1.8096-6.217 3.1848-10.236 4.1258-3.9772 0.94096-8.4149 1.4114-13.313 1.4114h-21.477v-70.953h23.486c18.295 0 27.443 5.7544 27.443 17.263 0 3.8362-1.0676 7.1296-3.2027 9.8802-2.0932 2.7505-5.5262 4.7953-10.299 6.1344 2.2188 0.36192 4.3121 0.97716 6.2798 1.8458 2.0095 0.86858 3.7679 1.9905 5.275 3.3658 1.5071 1.3753 2.7003 3.0039 3.5795 4.8858 0.87917 1.8819 1.3188 3.9991 1.3188 6.3515zm-14.569-31.16c0-1.4476-0.25119-2.8048-0.75357-4.0715-0.50238-1.3029-1.3816-2.4067-2.6375-3.3115-1.256-0.94097-2.9515-1.6829-5.0866-2.2258-2.1351-0.54286-4.8354-0.8143-8.1009-0.8143h-11.555v22.203h11.178c2.5538 0 4.8564-0.23524 6.9077-0.70572 2.0932-0.47049 3.8725-1.1943 5.3378-2.1715 1.5071-0.97716 2.6584-2.1896 3.4539-3.6372 0.8373-1.4838 1.256-3.2391 1.256-5.2658zm2.7003 31.486c0-1.8096-0.43958-3.4382-1.3188-4.8858-0.87916-1.4476-2.156-2.66-3.8306-3.6372-1.6746-1.0134-3.726-1.7915-6.1542-2.3343-2.3863-0.54286-5.0866-0.8143-8.1009-0.8143h-11.429v24.429h11.806c6.4054 0 11.178-1.0314 14.318-3.0943s4.7098-5.2839 4.7098-9.663z" color="#000000" color-rendering="auto" dominant-baseline="auto" fill="#fff" image-rendering="auto" shape-rendering="auto" solid-color="#000000" stop-color="#000000" style="font-feature-settings:normal;font-variant-alternates:normal;font-variant-caps:normal;font-variant-east-asian:normal;font-variant-ligatures:normal;font-variant-numeric:normal;font-variant-position:normal;font-variation-settings:normal;inline-size:0;isolation:auto;mix-blend-mode:normal;shape-margin:0;shape-padding:0;text-decoration-color:#000000;text-decoration-line:none;text-decoration-style:solid;text-indent:0;text-orientation:mixed;text-transform:none;white-space:normal"/>
  <path d="m79.802 106.81v74.639h23.609c5.0537 0 9.6801-0.48371 13.871-1.4746l6e-3 -2e-3c4.2266-0.99021 7.8926-2.4574 10.944-4.4255 3.0876-1.9645 5.5041-4.4063 7.1612-7.2674v-2e-3c1.7152-2.9262 2.5544-6.2556 2.5544-9.8988 0-2.5509-0.47999-4.9112-1.4747-7.0404-0.97005-2.0765-2.3093-3.9141-4.008-5.4642-1.6746-1.528-3.6394-2.7797-5.8545-3.739-5.9e-4 -2.6e-4 -1e-3 2.6e-4 -2e-3 0-0.46411-0.20483-1.0017-0.25676-1.4789-0.43583 2.6204-1.2955 4.7884-2.8916 6.3062-4.8831 2.3872-3.0784 3.5606-6.7705 3.5606-10.899 0-6.1765-2.6182-11.217-7.7388-14.439-5.1206-3.2212-12.43-4.6688-21.836-4.6688zm4.2643 3.6864h21.355c8.8889 0 15.301 1.431 19.328 3.9642 4.0269 2.5332 5.9827 6.1246 5.9827 11.457 0 3.5406-0.96265 6.4315-2.8422 8.8528l-4e-3 7e-3 -6e-3 7e-3c-1.7716 2.3279-4.7237 4.1443-9.1757 5.3934l0.26258 3.5647c2.0263 0.33051 3.92 0.88801 5.7054 1.6761l0.018 8e-3c1.7976 0.77699 3.3444 1.7646 4.6803 2.9836 1.3155 1.2004 2.3627 2.6219 3.151 4.3093 0.76365 1.6347 1.1638 3.5064 1.1638 5.6603 0 3.1601-0.7122 5.8762-2.0944 8.2335l-2e-3 4e-3 -2e-3 6e-3c-1.3553 2.3432-3.2902 4.3104-5.8882 5.9618l-6e-3 4e-3 -4e-3 4e-3c-2.5557 1.6488-5.7111 2.9331-9.5181 3.8244h-4e-3l-2e-3 2e-3c-3.7622 0.8901-8.0107 1.3456-12.751 1.3456h-19.348zm6.9154 4.4564v25.89h13.31c2.7021 0 5.1835-0.24663 7.4447-0.76452l9e-3 -2e-3c2.3167-0.52161 4.3664-1.3449 6.0856-2.4897 1.7587-1.1436 3.1469-2.6041 4.0837-4.3074 0.99968-1.7778 1.4642-3.8195 1.4642-6.0598 0-1.6282-0.28502-3.1904-0.86548-4.6579-0.62287-1.6129-1.7531-3.0274-3.2812-4.1313-1.5516-1.1573-3.5238-1.9935-5.8608-2.5877-2.4174-0.61465-5.3009-0.88981-8.703-0.88981zm4.2643 3.6864h9.4215c3.1288 0 5.6466 0.26982 7.4994 0.74091 1.9238 0.48913 3.3342 1.1332 4.2917 1.8505l0.0168 0.0109 0.0147 0.0109c0.97668 0.70359 1.6003 1.4916 1.9809 2.4788l4e-3 0.014c0.42155 1.0629 0.6386 2.2106 0.6386 3.4739 0 1.8073-0.37024 3.2715-1.0398 4.4582l-4e-3 9e-3 -4e-3 7e-3c-0.65128 1.1853-1.5617 2.1462-2.8086 2.9546l-0.0108 7e-3 -0.0126 7e-3c-1.2075 0.80527-2.7084 1.4282-4.571 1.8468l-6e-3 2e-3h-4e-3c-1.8394 0.42186-3.9585 0.64465-6.3608 0.64465h-9.0454zm-4.2643 26.551v28.116h13.938c6.6702 0 11.912-1.042 15.608-3.4703 3.7186-2.4431 5.552-6.37 5.552-11.13 0-2.0676-0.51376-4.0164-1.5629-5.7439-1.0434-1.7181-2.584-3.1683-4.5122-4.2965-1.9198-1.1592-4.204-2.0151-6.8187-2.6004-2.6-0.59148-5.4818-0.8753-8.6442-0.8753zm4.2643 3.6882h9.2954c2.8662 0 5.3856 0.25936 7.5582 0.75361h6e-3l4e-3 2e-3c2.2318 0.49896 4.0393 1.1973 5.4638 2.0593l0.0147 9e-3 0.0168 9e-3c1.4133 0.82469 2.4222 1.7932 3.1342 2.9655 0.7092 1.1678 1.0755 2.4781 1.0755 4.0296 0 3.9983-1.3082 6.5127-3.8694 8.1954-2.5838 1.6975-6.8856 2.7185-13.026 2.7185h-9.6735z" color="#000000" color-rendering="auto" dominant-baseline="auto" fill="#fff" image-rendering="auto" shape-rendering="auto" solid-color="#000000" stop-color="#000000" style="font-feature-settings:normal;font-variant-alternates:normal;font-variant-caps:normal;font-variant-east-asian:normal;font-variant-ligatures:normal;font-variant-numeric:normal;font-variant-position:normal;font-variation-settings:normal;inline-size:0;isolation:auto;mix-blend-mode:normal;shape-margin:0;shape-padding:0;text-decoration-color:#000000;text-decoration-line:none;text-decoration-style:solid;text-indent:0;text-orientation:mixed;text-transform:none;white-space:normal"/>
 </g>
 <g>
  <path transform="translate(-63.707 -102.63)" d="m106.54 105.22h2.6458v77.443h-2.6458z" fill="#2d3439" stroke-linecap="round" stroke-linejoin="bevel" stroke-width="3.965"/>
 </g>
</svg>
